<?xml version="1.0" standalone="no"?>
<!DOCTYPE svg PUBLIC "-//W3C//DTD SVG 20010904//EN"
 "http://www.w3.org/TR/2001/REC-SVG-20010904/DTD/svg10.dtd">
<svg version="1.0" xmlns="http://www.w3.org/2000/svg"
 width="984.000000pt" height="984.000000pt" viewBox="0 0 984.000000 984.000000"
 preserveAspectRatio="xMidYMid meet">
<metadata>
Created by potrace 1.14, written by Peter Selinger 2001-2017
</metadata>
<g transform="translate(0.000000,984.000000) scale(0.100000,-0.100000)"
fill="#000000" stroke="none">
<path d="M3540 9819 c-30 -4 -71 -9 -90 -13 -19 -3 -52 -8 -74 -11 -21 -3 -41
-7 -45 -10 -4 -2 -21 -7 -37 -9 -16 -3 -38 -8 -49 -10 -20 -4 -145 -43 -175
-54 -8 -3 -17 -6 -20 -7 -7 -2 -53 -22 -113 -47 -118 -50 -340 -181 -414 -244
-12 -10 -39 -32 -60 -49 -76 -60 -217 -202 -288 -290 -149 -185 -270 -401
-340 -610 -20 -60 -39 -117 -43 -125 -3 -8 -6 -20 -7 -26 -2 -7 -10 -43 -18
-80 -9 -38 -18 -89 -22 -114 -3 -25 -8 -52 -10 -60 -6 -21 -16 -182 -17 -265
-1 -104 11 -257 28 -338 3 -16 7 -38 9 -50 11 -85 67 -273 119 -398 42 -103
146 -303 166 -319 3 -3 17 -23 30 -44 68 -113 249 -314 370 -412 19 -16 37
-31 40 -34 3 -3 23 -18 45 -35 22 -16 42 -32 45 -36 6 -8 257 -159 264 -159 3
0 41 -18 86 -39 44 -22 93 -42 110 -46 16 -4 32 -11 35 -16 4 -5 16 -9 29 -9
12 0 26 -3 30 -7 4 -5 11 -8 14 -9 4 0 27 -6 52 -13 25 -7 52 -14 60 -16 8 -2
35 -8 60 -15 25 -7 54 -13 65 -15 11 -1 34 -5 50 -8 73 -16 164 -21 355 -20
195 0 275 9 445 46 85 19 206 57 223 70 6 5 12 7 12 4 0 -11 252 102 258 116
2 4 9 7 15 7 17 0 212 126 292 190 67 52 243 222 295 285 71 85 180 239 180
254 0 5 3 11 8 13 15 7 109 197 155 313 35 89 81 247 92 315 3 19 8 42 10 50
35 124 41 554 10 695 -3 11 -7 31 -9 45 -3 20 -28 129 -40 175 -2 6 -6 24 -10
40 -4 17 -11 39 -16 50 -4 11 -22 58 -40 105 -35 92 -129 283 -142 288 -4 2
-8 9 -8 15 0 15 -83 136 -158 232 -35 44 -111 126 -168 182 -104 101 -280 243
-301 243 -6 0 -13 4 -15 8 -9 25 -379 212 -418 212 -6 0 -18 4 -28 9 -35 19
-261 76 -339 86 -21 3 -54 8 -73 11 -57 9 -410 12 -470 3z m390 -333 c211 -22
374 -69 575 -166 239 -116 453 -290 603 -489 31 -42 60 -77 64 -79 4 -2 8 -10
8 -17 0 -8 6 -20 13 -27 25 -27 134 -234 150 -283 3 -11 15 -47 27 -80 12 -33
23 -67 25 -75 2 -8 4 -15 5 -15 2 0 3 -5 24 -100 21 -101 24 -115 32 -202 12
-130 6 -337 -12 -428 -3 -11 -7 -36 -10 -55 -3 -19 -10 -53 -16 -75 -5 -22
-11 -47 -13 -55 -3 -13 -19 -60 -78 -227 -7 -18 -15 -33 -19 -33 -5 0 -8 -9
-8 -20 0 -11 -4 -20 -10 -20 -5 0 -10 -6 -10 -13 0 -39 -160 -274 -259 -381
-73 -79 -186 -186 -197 -186 -3 0 -14 -9 -26 -20 -35 -33 -153 -108 -240 -155
-248 -131 -545 -204 -807 -199 -87 2 -216 12 -251 19 -14 3 -39 7 -56 10 -40
5 -143 31 -219 56 -66 21 -76 25 -150 59 -27 13 -52 24 -55 25 -13 3 -117 60
-168 92 -272 173 -501 430 -635 715 -34 73 -94 231 -103 273 -6 28 -12 53 -24
103 -6 24 -8 47 -5 53 4 5 2 9 -2 9 -5 0 -9 8 -10 18 0 9 -4 42 -7 72 -10 82
-11 295 -3 375 12 117 21 165 53 280 14 50 32 104 39 122 8 17 15 36 15 43 0
32 168 339 208 379 7 8 21 26 30 40 36 56 165 190 257 268 70 59 202 150 260
178 22 11 42 23 45 26 8 10 239 106 290 120 25 7 50 14 55 15 6 2 24 6 40 9
17 3 37 8 45 11 8 3 29 8 45 10 17 3 41 7 55 9 14 2 61 7 105 11 44 3 81 7 83
9 4 3 182 -3 242 -9z"/>
<path d="M3737 9094 c-1 -1 -40 -4 -87 -7 -392 -25 -776 -257 -993 -601 -70
-110 -152 -308 -172 -414 -3 -15 -7 -38 -10 -52 -31 -148 -22 -392 20 -546 9
-33 17 -66 20 -75 15 -67 127 -299 147 -307 4 -2 8 -9 8 -16 0 -7 8 -21 18
-32 9 -11 33 -40 52 -64 81 -106 207 -219 324 -293 101 -65 290 -144 384 -162
12 -2 30 -6 40 -9 56 -16 144 -25 262 -26 357 -4 682 130 935 385 71 71 92 98
157 191 38 53 76 123 76 138 0 5 4 12 9 15 5 3 17 26 27 51 10 25 22 52 26 61
12 24 50 164 55 205 3 20 7 39 9 43 8 12 20 166 18 231 -4 148 -28 285 -72
410 -28 79 -91 209 -131 268 -16 23 -29 47 -29 52 0 4 -3 10 -7 12 -5 2 -26
26 -48 53 -77 96 -237 245 -264 245 -6 0 -11 4 -11 9 0 5 -16 16 -35 25 -19 9
-37 20 -40 25 -9 16 -214 110 -254 118 -13 2 -31 8 -40 12 -23 13 -148 37
-236 46 -54 6 -155 12 -158 9z m158 -218 c33 -3 68 -9 77 -12 9 -2 26 -7 37
-9 12 -3 29 -7 40 -9 81 -18 228 -86 326 -151 102 -68 315 -292 315 -333 0 -5
4 -12 8 -14 7 -3 64 -115 82 -163 26 -67 44 -129 54 -190 3 -16 8 -41 11 -55
19 -86 2 -340 -30 -440 -3 -10 -8 -27 -10 -37 -11 -43 -30 -93 -37 -93 -5 0
-8 -7 -8 -15 0 -23 -68 -144 -119 -212 -48 -63 -138 -163 -147 -163 -3 0 -15
-10 -27 -23 -53 -54 -269 -183 -321 -191 -6 -1 -16 -4 -21 -8 -20 -12 -141
-41 -225 -52 -224 -31 -468 14 -665 124 -202 112 -355 271 -458 478 -25 50
-44 92 -42 92 2 0 -3 16 -11 35 -58 141 -74 374 -39 575 11 60 58 197 92 264
31 62 79 143 93 156 3 3 18 23 34 44 121 161 351 313 564 371 83 23 91 24 156
30 33 3 61 7 62 8 5 4 145 0 209 -7z"/>
<path d="M3628 8220 c-31 -10 -74 -28 -95 -41 -51 -31 -143 -118 -143 -135 0
-8 -4 -14 -8 -14 -8 0 -49 -86 -59 -125 -10 -37 -11 -198 -1 -229 50 -158 188
-291 336 -324 149 -34 303 11 413 118 146 143 179 362 81 538 -54 97 -179 195
-279 218 -61 14 -188 11 -245 -6z m222 -223 c77 -33 133 -120 133 -207 0 -88
-51 -169 -130 -204 -141 -63 -300 28 -319 183 -3 18 2 57 11 86 36 126 182
194 305 142z"/>
<path d="M6104 7291 l0 -146 85 -85 c89 -88 213 -223 252 -275 13 -16 30 -37
39 -45 8 -8 22 -25 30 -37 8 -11 47 -63 86 -115 183 -243 390 -595 524 -893
13 -27 36 -78 51 -112 15 -35 53 -127 84 -205 32 -79 61 -152 66 -163 13 -30
124 -369 152 -465 28 -93 87 -306 92 -330 2 -8 17 -71 34 -140 16 -69 32 -136
35 -150 3 -14 12 -55 20 -91 8 -36 17 -79 20 -95 3 -16 8 -42 11 -59 6 -31 40
-218 50 -270 2 -16 8 -50 11 -75 3 -25 8 -54 11 -65 9 -44 13 -64 28 -175 9
-63 19 -131 22 -150 2 -19 6 -48 8 -65 1 -16 5 -50 8 -75 4 -25 9 -67 12 -95
4 -27 8 -61 10 -75 2 -14 6 -56 10 -95 3 -38 8 -89 11 -113 5 -47 10 -98 19
-207 9 -108 10 -111 59 -260 44 -131 110 -372 121 -440 3 -16 7 -41 10 -55 23
-120 27 -328 9 -416 -28 -134 -103 -237 -221 -307 -47 -27 -139 -65 -173 -72
-3 -1 -21 -5 -40 -10 -43 -10 -72 -14 -130 -20 -25 -2 -45 -5 -45 -6 0 0 -23
-2 -51 -4 -28 -2 -80 -11 -115 -20 -35 -9 -71 -18 -79 -20 -8 -2 -44 -11 -80
-20 -36 -9 -76 -18 -90 -21 -14 -2 -38 -9 -55 -14 -16 -5 -41 -11 -55 -14 -14
-2 -101 -22 -195 -44 -93 -22 -183 -43 -200 -46 -16 -4 -39 -8 -50 -11 -83
-19 -248 -55 -267 -59 -13 -2 -43 -9 -68 -15 -25 -5 -60 -12 -77 -16 -18 -3
-78 -14 -133 -25 -55 -11 -113 -22 -128 -25 -15 -3 -38 -7 -52 -10 -14 -3 -38
-7 -55 -10 -16 -3 -41 -7 -55 -10 -14 -3 -38 -7 -55 -10 -16 -3 -41 -7 -55
-10 -14 -3 -41 -8 -60 -10 -19 -3 -44 -7 -55 -9 -11 -2 -42 -7 -70 -11 -27 -4
-52 -8 -55 -10 -3 -2 -30 -6 -60 -10 -30 -3 -73 -10 -95 -15 -22 -5 -69 -11
-105 -15 -36 -4 -68 -9 -71 -11 -3 -2 -33 -6 -65 -9 -33 -3 -68 -7 -80 -9 -18
-4 -54 -9 -154 -21 -14 -2 -56 -6 -94 -10 -38 -4 -78 -8 -87 -10 -10 -2 -53
-7 -96 -10 -43 -4 -89 -8 -103 -10 -55 -8 -193 -18 -455 -32 -311 -16 -872 -5
-1105 21 -25 3 -70 8 -100 12 -30 3 -64 8 -75 10 -10 2 -37 6 -60 9 -22 3 -51
8 -65 10 -14 3 -41 7 -60 10 -49 8 -232 46 -250 53 -8 3 -24 7 -35 9 -11 3
-24 6 -30 7 -44 10 -275 87 -370 123 -63 25 -100 21 -136 -13 -50 -48 -50
-114 -1 -159 33 -31 279 -120 457 -166 22 -6 54 -14 70 -19 29 -9 218 -48 260
-54 11 -2 55 -9 97 -15 43 -7 90 -14 105 -16 16 -2 28 -4 28 -5 0 -1 16 -3 35
-5 19 -2 60 -6 90 -9 245 -25 368 -31 725 -31 297 0 512 6 675 20 19 1 73 6
120 10 47 3 101 8 120 10 19 3 63 7 97 9 34 3 79 7 100 10 21 3 63 8 93 11 79
8 131 14 160 20 14 3 48 7 75 10 28 2 60 7 72 9 12 3 46 7 75 10 29 4 64 8 78
11 14 3 41 7 60 10 19 2 51 6 70 10 95 16 149 24 185 30 59 8 89 14 210 36 61
12 125 23 144 25 19 3 37 6 41 9 3 2 29 7 56 10 27 4 65 10 84 15 19 5 51 12
70 15 19 3 78 15 131 26 126 26 123 25 209 44 41 9 86 19 100 21 43 8 206 45
260 59 3 0 23 5 45 10 22 4 45 9 50 11 36 9 233 56 245 59 8 2 65 15 125 30
61 14 117 28 125 30 8 1 34 8 58 14 23 7 68 14 100 16 51 3 79 7 161 20 95 16
185 42 281 82 8 3 18 5 23 5 4 -1 7 2 7 8 0 5 5 10 11 10 35 0 176 117 232
193 36 47 93 169 107 228 6 24 13 53 17 64 3 11 7 92 8 180 2 143 -3 205 -29
340 -4 17 -9 46 -12 65 -3 19 -12 60 -21 90 -8 30 -23 87 -33 125 -10 39 -38
129 -61 200 -24 72 -43 132 -44 135 -1 3 -5 50 -9 105 -4 55 -10 115 -12 132
-2 18 -6 59 -10 90 -9 93 -12 115 -18 168 -3 28 -8 75 -12 105 -7 64 -10 89
-18 150 -3 25 -8 63 -11 85 -3 22 -7 51 -10 65 -5 25 -14 92 -20 140 -1 14 -8
59 -14 100 -13 75 -16 95 -26 148 -3 15 -19 101 -36 192 -31 173 -39 214 -90
425 -17 72 -32 137 -34 145 -1 8 -8 35 -15 60 -7 25 -13 52 -15 60 -6 28 -43
164 -70 255 -15 50 -28 95 -29 100 -2 6 -6 17 -9 25 -3 8 -15 47 -27 85 -55
175 -177 502 -236 635 -14 30 -37 82 -52 115 -32 71 -170 349 -210 420 -85
154 -263 437 -317 503 -7 9 -40 53 -73 97 -114 152 -227 281 -392 445 -91 91
-183 180 -205 197 l-40 31 -1 -147z"/>
<path d="M5340 5814 c-25 -18 -54 -38 -65 -43 -12 -5 -27 -16 -34 -25 -7 -9
-19 -16 -26 -16 -28 0 -37 -30 -36 -117 2 -284 29 -783 56 -1018 2 -22 7 -67
11 -100 3 -33 8 -69 10 -80 3 -11 7 -41 9 -67 5 -51 5 -50 35 -227 11 -68 23
-127 25 -130 2 -4 6 -26 10 -50 3 -24 10 -54 15 -67 5 -13 8 -24 6 -24 -2 0 2
-21 10 -47 8 -25 12 -48 10 -50 -2 -2 -25 8 -52 21 -180 91 -422 180 -554 203
-14 2 -40 8 -59 13 -19 5 -38 7 -43 4 -4 -3 -8 -1 -8 3 0 5 -17 9 -37 10 -21
1 -65 5 -98 9 -73 9 -300 9 -375 0 -210 -27 -411 -87 -600 -180 -121 -60 -124
-62 -239 -138 -92 -61 -83 -60 -151 -19 -115 70 -254 133 -400 181 -52 17
-102 32 -110 34 -8 1 -33 8 -55 14 -22 6 -53 14 -70 16 -16 3 -41 8 -55 11
-14 3 -41 8 -60 11 -19 4 -42 8 -50 9 -8 2 -40 6 -70 10 -30 3 -68 8 -85 10
-147 21 -538 25 -573 6 -68 -37 -75 -130 -12 -186 20 -18 38 -20 169 -22 264
-4 451 -19 606 -49 11 -2 34 -7 50 -9 162 -29 438 -130 570 -210 22 -13 54
-31 71 -40 17 -9 41 -25 52 -35 12 -11 25 -20 31 -20 5 0 11 -3 13 -7 2 -5 25
-26 53 -48 47 -38 162 -151 195 -192 76 -95 149 -207 200 -307 31 -62 71 -89
124 -82 38 4 100 51 90 67 -2 4 -1 10 4 13 32 20 -57 198 -192 381 -57 78
-106 133 -183 208 -29 28 -53 54 -53 58 0 4 39 31 88 59 48 28 94 56 102 61 8
5 22 12 30 15 8 3 38 16 65 29 235 108 530 158 785 131 117 -12 123 -13 160
-21 19 -5 40 -9 45 -10 6 0 24 -4 40 -8 17 -4 39 -9 50 -11 83 -17 274 -90
420 -161 198 -97 285 -153 285 -184 0 -9 4 -21 8 -27 5 -5 19 -36 32 -69 43
-108 169 -335 191 -343 5 -2 9 -9 9 -16 0 -7 8 -21 18 -32 9 -10 29 -35 44
-54 64 -84 189 -198 288 -262 80 -52 194 -108 220 -108 39 0 92 32 105 64 29
69 -1 123 -94 168 -36 18 -67 36 -69 40 -2 5 -9 8 -14 8 -32 0 -199 150 -280
251 -93 116 -209 336 -268 509 -12 36 -25 72 -28 80 -3 8 -6 20 -8 25 -1 6
-12 42 -24 80 -19 65 -53 200 -64 255 -2 14 -9 45 -14 70 -6 25 -13 61 -16 80
-3 19 -12 73 -20 120 -8 47 -17 105 -20 130 -3 25 -8 56 -10 70 -2 14 -7 54
-11 90 -3 36 -8 79 -10 95 -10 74 -29 326 -40 545 -5 87 -15 477 -17 608 0 39
-3 72 -7 71 -3 0 -26 -16 -51 -35z"/>
</g>
</svg>
